<svg xmlns="http://www.w3.org/2000/svg" width="19.999" height="20" viewBox="0 0 19.999 20">
  <g id="resize" transform="translate(0.15 0.152)">
    <g id="Group_1009" data-name="Group 1009" transform="translate(0 1.791)">
      <path id="Path_1158" data-name="Path 1158" d="M16.669,20.907H3.238A2.242,2.242,0,0,1,1,18.669V5.238A2.242,2.242,0,0,1,3.238,3H11.3a.448.448,0,1,1,0,.9H3.238A1.345,1.345,0,0,0,1.9,5.238V18.669a1.345,1.345,0,0,0,1.343,1.343H16.669a1.345,1.345,0,0,0,1.343-1.343V10.611a.448.448,0,0,1,.9,0v8.058A2.242,2.242,0,0,1,16.669,20.907Z" transform="translate(-1 -3)" fill="#444646" stroke="#fff" stroke-width="0.3"/>
    </g>
    <path id="Union_12" data-name="Union 12" d="M15476.264,7874.688a.444.444,0,0,1,0-.63l9.979-9.981h-5.186a.449.449,0,0,1,0-.9h6.27a.448.448,0,0,1,.447.451v6.266a.447.447,0,0,1-.895,0v-5.189l-9.981,9.981a.446.446,0,0,1-.634,0Z" transform="translate(-15468.075 -7863.18)" fill="#444646" stroke="#fff" stroke-width="0.3"/>
  </g>
</svg>
