<svg xmlns="http://www.w3.org/2000/svg" width="26.999" height="27" viewBox="0 0 26.999 27"><defs><style>.a{fill:#fff;}</style></defs><g transform="translate(0 -0.019)"><g transform="translate(0 0.019)"><path class="a" d="M39,10.246a1.2,1.2,0,0,0,.931,1.092V9.154A1.2,1.2,0,0,0,39,10.246Z" transform="translate(-20.84 -4.9)"/><path class="a" d="M43,18.339a1.106,1.106,0,0,0,0-2.185Z" transform="translate(-22.977 -8.641)"/><path class="a" d="M31.478.019A.466.466,0,0,0,31,.488V12.117a.466.466,0,0,0,.466.466H43.095a.466.466,0,0,0,.469-.478A12.572,12.572,0,0,0,31.478.019ZM38.45,8.624a2.168,2.168,0,0,1-1.863,2.053v.042a.466.466,0,1,1-.931,0v-.042a2.168,2.168,0,0,1-1.863-2.053.466.466,0,1,1,.931,0,1.2,1.2,0,0,0,.931,1.092v-2.3a2.168,2.168,0,0,1-1.863-2.053,2.168,2.168,0,0,1,1.863-2.053V3.269a.466.466,0,1,1,.931,0v.042A2.168,2.168,0,0,1,38.45,5.365a.466.466,0,0,1-.931,0,1.2,1.2,0,0,0-.931-1.092v2.3A2.168,2.168,0,0,1,38.45,8.624Z" transform="translate(-16.565 -0.019)"/><path class="a" d="M2.328,29.925V15.36A12.554,12.554,0,0,0,2.328,29.925Z" transform="translate(0 -8.216)"/><path class="a" d="M9.328,8.55A12.469,12.469,0,0,0,7,10.562v16.88a1.221,1.221,0,0,0,.1.116l2.226-2.226Z" transform="translate(-3.741 -4.577)"/><path class="a" d="M16.328,5.2A12.73,12.73,0,0,0,14,6.192V22.61l2.328-2.328Z" transform="translate(-7.481 -2.787)"/><path class="a" d="M23.318,4.019A12.229,12.229,0,0,0,21,4.327V18.72l2.657-2.657a.466.466,0,0,0,.136-.329V4.486a.466.466,0,0,0-.476-.468Z" transform="translate(-11.221 -2.156)"/><path class="a" d="M18.282,31a.466.466,0,0,0-.329.136L9.233,39.856a.466.466,0,0,0,.019.68A12.561,12.561,0,0,0,30,31.477.466.466,0,0,0,29.528,31Z" transform="translate(-4.86 -16.574)"/></g></g></svg>