<svg xmlns="http://www.w3.org/2000/svg" width="27" height="27" viewBox="0 0 27 27"><defs><style>.a{fill:#fff;}</style></defs><g transform="translate(0 0)"><g transform="translate(0 0)"><path class="a" d="M26.277,23.143H4.339a.482.482,0,0,1-.482-.482V.723a.723.723,0,0,0-1.446,0V22.661a.482.482,0,0,1-.482.482H.723a.723.723,0,1,0,0,1.446H1.929a.482.482,0,0,1,.482.482v1.205a.723.723,0,0,0,1.446,0V25.071a.482.482,0,0,1,.482-.482H26.277a.723.723,0,0,0,0-1.446Z"/><path class="a" d="M30.943,2.269l.473.473L32.026,0l-2.74.61.3.295a.482.482,0,0,1-.018.7L22.183,8.245a.482.482,0,0,1-.508.086L16.453,6.152a.492.492,0,0,0-.485.069L10,10.906v1.228l6.119-4.805a.482.482,0,0,1,.482-.066l5.265,2.194a.5.5,0,0,0,.513-.091l7.9-7.114a.482.482,0,0,1,.663.018Z" transform="translate(-5.179 9.688)"/></g></g></svg>