<svg id="Group_983" data-name="Group 983" xmlns="http://www.w3.org/2000/svg" width="26" height="26" viewBox="0 0 26 26">
  <path id="Path_1144" data-name="Path 1144" d="M13,0A13,13,0,1,1,0,13,13,13,0,0,1,13,0Z" fill="#fff"/>
  <path id="Path_1145" data-name="Path 1145" d="M4.17-13.5a1.6,1.6,0,0,1-.45,1.155,1.484,1.484,0,0,1-1.11.465,1.519,1.519,0,0,1-1.14-.465A1.6,1.6,0,0,1,1.02-13.5a1.568,1.568,0,0,1,.465-1.155A1.532,1.532,0,0,1,2.61-15.12a1.484,1.484,0,0,1,1.11.465A1.6,1.6,0,0,1,4.17-13.5ZM3.96-1.95q0,2.1-1.35,2.1T1.26-1.95V-8.43q0-2.1,1.35-2.1t1.35,2.1Z" transform="translate(11 21)" fill="#521d7c"/>
</svg>
